<svg width="396" height="177.76696989284866" viewBox="0 -11 350 157.117271369942" class="css-1j8o68f"><defs id="SvgjsDefs3674"></defs><g id="SvgjsG3675" featurekey="symbolFeature-0" transform="matrix(0.26246566351909256,0,0,0.26246566351909256,131.03414366403018,-14.950014921601381)" fill="#daeaf8"><defs xmlns="http://www.w3.org/2000/svg"></defs><g xmlns="http://www.w3.org/2000/svg"><path class="fil0" d="M243.61 297.14c-22.56,13.31 -48.85,20.97 -76.94,20.97 -83.7,0 -151.56,-67.86 -151.56,-151.56 0,-80.88 63.35,-146.95 143.14,-151.32l0 67.54c-42.55,4.22 -75.78,40.12 -75.78,83.78 0,46.5 37.7,84.2 84.2,84.2 14.26,0 27.7,-3.55 39.47,-9.81l37.47 56.21zm53.01 -168.3l8.47 0 0.51 1.93 -13.48 0 4.5 -1.93zm8.33 -0.5l-7.16 0 4.5 -1.93 2.11 0 0.55 1.93zm-0.69 -2.43l-0.79 0 0.7 -0.3 0.09 0.3zm-13.32 5.37l14.79 0 0.47 1.93 -19.76 0 4.5 -1.93zm-5.68 2.43l21.06 0 0.44 1.93 -25.99 0 4.5 -1.93zm-5.68 2.43l27.28 0 0.4 1.93 -32.18 0 4.5 -1.93zm-5.68 2.43l33.46 0 0.37 1.93 -38.33 0 4.5 -1.93zm-5.67 2.43l39.59 0 0.33 1.93 -44.43 0 4.5 -1.93zm-5.68 2.43l45.69 0 0.3 1.93 -50.49 0 4.5 -1.93zm-5.68 2.43l51.74 0 0.26 1.93 -51.78 0 -0.4 -1.85 0.19 -0.08zm0.32 2.43l51.75 0 0.23 1.93 -51.61 0 -0.37 -1.93zm0.45 2.43l51.58 0 0.2 1.93 -51.47 0 -0.31 -1.93zm0.39 2.44l51.44 0 0.17 1.93 -51.35 0 -0.26 -1.93zm0.32 2.43l51.33 0 0.13 1.93 -51.25 0 -0.21 -1.93zm0.26 2.43l51.24 0 0.1 1.93 -51.18 0 -0.16 -1.93zm0.19 2.43l51.17 0 0.07 1.93 -51.13 0 -0.11 -1.93zm0.13 2.43l51.12 0 0.04 1.93 -51.1 0 -0.06 -1.93zm0.06 2.43l51.1 0 0 1.2 -0 0.72 -51.09 0 0 -0.72 -0.01 -1.2zm0 2.43l51.09 0 -0.03 1.93 -51.11 0 0.05 -1.93zm-0.06 2.43l51.12 0 -0.06 1.93 -51.15 0 0.1 -1.93zm-0.13 2.43l51.17 0 -0.09 1.93 -51.22 0 0.15 -1.93zm-0.19 2.43l51.23 0 -0.13 1.93 -51.3 0 0.2 -1.93zm-0.26 2.43l51.33 0 -0.16 1.93 -51.41 0 0.25 -1.93zm-0.32 2.43l51.44 0 -0.2 1.93 -51.55 0 0.3 -1.93zm-0.39 2.43l51.58 0 -0.23 1.93 -51.71 0 0.36 -1.93zm-0.46 2.43l51.75 0 -0.26 1.93 -51.89 0 0.41 -1.93zm-0.52 2.43l51.94 0 -0.29 1.93 -52.11 0 0.47 -1.93zm-0.59 2.43l52.16 0 -0.33 1.93 -52.35 0 0.52 -1.93zm-0.66 2.43l52.4 0 -0.36 1.93 -52.62 0 0.58 -1.93zm-0.74 2.43l52.68 0 -0.39 1.93 -52.92 0 0.63 -1.93zm-0.81 2.43l52.98 0 -0.43 1.93 -53.25 0 0.7 -1.93zm-0.89 2.43l53.32 0 -0.46 1.93 -53.62 0 0.76 -1.93zm-0.97 2.44l53.7 0 -0.5 1.93 -54.02 0 0.82 -1.93zm-1.05 2.43l54.11 0 -0.54 1.93 -54.45 0 0.89 -1.93zm-1.13 2.43l54.55 0 -0.57 1.93 -54.94 0 0.96 -1.93zm-1.22 2.43l55.04 0 -0.61 1.93 -55.46 0 1.03 -1.93zm-1.31 2.43l55.57 0 -0.65 1.93 -56.03 0 1.11 -1.93zm-1.41 2.43l56.16 0 -0.69 1.93 -56.65 0 1.19 -1.93zm-1.51 2.43l56.79 0 -0.73 1.93 -57.33 0 1.28 -1.93zm-1.62 2.43l57.48 0 -0.78 1.93 -58.07 0c0.46,-0.64 0.92,-1.28 1.37,-1.93zm-1.73 2.43l58.24 0 -0.81 1.93 -58.89 0c0.5,-0.63 0.98,-1.28 1.46,-1.93zm-1.86 2.43l59.06 0 -0.85 1.93 -59.78 0 1.57 -1.93zm-1.99 2.43l59.96 0 -0.89 1.93 -0 0 -60.75 0c0.57,-0.64 1.13,-1.28 1.69,-1.93zm-2.14 2.43l60.97 0 -0.94 1.93 -61.83 0c0.61,-0.63 1.22,-1.28 1.81,-1.93zm-2.3 2.43l62.06 0 -0.99 1.93 -62.98 0 -0.01 -0.02c0.65,-0.63 1.29,-1.26 1.92,-1.91zm-1.57 2.43l62.38 0 -1.04 1.93 -60.06 0 -1.28 -1.93zm1.62 2.43l59.44 0 -1.09 1.93 -57.07 0 -1.28 -1.93zm1.62 2.43l56.44 0 -1.13 1.93 -54.02 0 -1.28 -1.93zm1.62 2.43l53.38 0 -1.19 1.93 -50.91 0 -1.28 -1.93zm1.62 2.43l50.25 0 -1.24 1.93 -47.73 0 -1.28 -1.93zm1.62 2.43l47.06 0 -1.3 1.93 -44.47 0 -1.28 -1.93zm1.62 2.43l43.79 0 -1.36 1.93 -41.14 0 -1.29 -1.93zm1.62 2.44l40.44 0 -1.42 1.93 -37.74 0 -1.29 -1.93zm1.62 2.43l37.02 0 -1.48 1.93 -34.26 0 -1.29 -1.93zm1.63 2.43l33.52 0 -1.55 1.93 -30.68 0 -1.28 -1.93zm1.62 2.43l29.93 0 -1.63 1.93 -27.02 0 -1.28 -1.93zm1.62 2.43l26.25 0 -1.69 1.93 -23.28 0 -1.28 -1.93zm1.62 2.43l22.48 0 -1.78 1.93 -19.42 0 -1.28 -1.93zm1.62 2.43l18.61 0 -1.87 1.93 -15.46 0 -1.28 -1.93zm1.62 2.43l14.63 0 -1.95 1.93 -11.39 0 -1.28 -1.93zm1.62 2.43l10.53 0c-0.68,0.65 -1.35,1.3 -2.04,1.93l-7.2 0 -1.28 -1.93zm1.62 2.43l6.31 0 -2.15 1.93 -2.87 0 -1.28 -1.93zm1.62 2.43l1.96 0 -1.24 1.07 -0.71 -1.07zm-94.05 -101.52l0 39.65c1.31,0.1 2.6,0.09 3.91,0.01l0 -39.56c-1.31,-0.08 -2.61,-0.06 -3.91,-0.11zm-9.63 -1.43c-32.58,-8.81 -32.58,-54.74 0,-63.55l0 -6.34c0,-6.37 9.63,-6.37 9.63,0l0 4.92c1.31,-0.06 2.6,-0.06 3.91,0.01l0 -4.93c0,-6.37 9.63,-6.37 9.63,0l0 6.63c13.85,4.26 24.92,16 24.92,31.49 0,8.81 -13.4,8.81 -13.4,0 0,-7.88 -4.97,-13.86 -11.52,-17.11l0 38.42c32.58,8.81 32.57,54.74 0,63.55l0 6.34c0,6.37 -9.63,6.37 -9.63,0l0 -4.92c-1.31,0.06 -2.6,0.06 -3.91,-0.01l0 4.93c0,6.37 -9.63,6.37 -9.63,0l0 -6.63c-13.85,-4.26 -24.92,-16 -24.92,-31.49 0,-8.81 13.4,-8.81 13.4,0 0,7.88 4.97,13.86 11.52,17.11l0 -38.42zm13.54 -51.54c-1.31,-0.1 -2.6,-0.09 -3.91,-0.01l0 39.56c1.31,0.08 2.61,0.06 3.91,0.11l0 -39.65zm-13.54 2.31c-15,7.06 -15,27.84 0,34.91l0 -34.91zm23.17 87.99c15,-7.07 15,-27.85 0,-34.91l0 34.91zm130.85 -96.02c5.91,16.19 9.13,33.67 9.13,51.91 0,49.58 -23.81,93.6 -60.61,121.25l-37.48 -56.21c18.76,-15.44 30.72,-38.84 30.72,-65.04 0,-8.81 -1.35,-17.31 -3.87,-25.29l62.1 -26.61zm-134.02 -99.42c55.92,3.06 103.76,36.44 127.38,83.98l-62.1 26.62c-13.07,-23.6 -37.13,-40.26 -65.28,-43.06l0 -67.54zm8.13 8.85l0 51.62c24.74,4.49 46.56,18.95 60.43,39.87l47.46 -20.35c-22.61,-39.41 -62.65,-65.93 -107.9,-71.15z" style="fill: #daeaf8;"></path></g></g><g id="SvgjsG3676" featurekey="nameFeature-0" transform="matrix(0.6120458966113764,0,0,0.6120458966113764,-1.7028853725684239,93.65247241249337)" fill="#ffffff"><path d="M3.3398 25.508 c2.0117 -8.75 8.7109 -15.137 17.91 -15.137 c5.1758 0 8.1055 1.4648 9.8438 2.7344 l-1.875 8.1445 l-3.125 0 c-12.637 -13.613 -22.285 21.719 -1.7773 8.457 l2.9492 0 l-1.8359 7.9883 c-10.313 5.9375 -25.781 3.8477 -22.09 -12.188 z M34.9072015625 40.039063 l-9.8633 0 l16.25 -29.141 l9.7461 0 l2.7734 29.141 l-10.02 0 l-0.39063 -5.5078 l-5.5469 0 c-1.0352 1.8164 -1.9336 3.6914 -2.9492 5.5078 z M40.434101562500004 27.715 l2.7148 0 l0.078125 -6.9336 z M54.599605625 37.8711 l1.8359 -8.0664 l2.9883 0 c0.39063 4.1797 9.707 5.918 10.625 1.8359 c0.48828 -2.0703 -6.8164 -2.6367 -9.2188 -4.5117 c-2.3828 -1.8555 -2.6367 -4.4141 -2.0117 -7.1484 c2.3438 -10.313 16.367 -11.309 24.453 -7.2461 l-1.7969 7.832 l-3.0078 0 c0.17578 -2.9492 -8.7305 -4.9414 -9.5313 -1.4063 c-0.625 2.7344 8.4375 1.9336 10.918 6.2695 c2.4023 4.2969 -1.3672 9.9414 -4.8242 12.305 c-6.0742 4.0039 -14.16 3.3203 -20.43 0.13672 z M87.6708734375 40.039063 l-9.8633 0 l16.25 -29.141 l9.7461 0 l2.7734 29.141 l-10.02 0 l-0.39063 -5.5078 l-5.5469 0 c-1.0352 1.8164 -1.9336 3.6914 -2.9492 5.5078 z M93.1977734375 27.715 l2.7148 0 l0.078125 -6.9336 z M159.2631953125 25.508 c-1.6602 7.0898 -7.4023 12.852 -14.668 14.16 c-4.8828 0.68359 -10.371 0.37109 -15.273 0.37109 l6.6992 -29.141 c3.8672 0 13.789 -0.58594 17.656 1.0742 c5.4492 2.3047 6.7969 8.1836 5.5859 13.535 z M149.2821953125 25.43 c1.1719 -5.0781 -0.27344 -7.3047 -5.0977 -7.3047 l-3.3789 14.648 c4.9023 0 7.2656 -2.0898 8.4766 -7.3438 z M180.302390625 40 l-20.859 0 l6.6992 -29.082 l20.859 0 l-1.6992 7.3438 l-11.094 0 l-0.56641 2.4805 l10.215 0 l-1.6797 7.3438 l-10.215 0 l-1.0547 4.5508 l11.094 0 z M203.98437125 37.8711 l1.8359 -8.0664 l2.9883 0 c0.39063 4.1797 9.707 5.918 10.625 1.8359 c0.48828 -2.0703 -6.8164 -2.6367 -9.2188 -4.5117 c-2.3828 -1.8555 -2.6367 -4.4141 -2.0117 -7.1484 c2.3438 -10.313 16.367 -11.309 24.453 -7.2461 l-1.7969 7.832 l-3.0078 0 c0.17578 -2.9492 -8.7305 -4.9414 -9.5313 -1.4063 c-0.625 2.7344 8.4375 1.9336 10.918 6.2695 c2.4023 4.2969 -1.3672 9.9414 -4.8242 12.305 c-6.0742 4.0039 -14.16 3.3203 -20.43 0.13672 z M232.1923390625 25.508 c2.0117 -8.75 8.7109 -15.137 17.91 -15.137 c5.1758 0 8.1055 1.4648 9.8438 2.7344 l-1.875 8.1445 l-3.125 0 c-12.637 -13.613 -22.285 21.719 -1.7773 8.457 l2.9492 0 l-1.8359 7.9883 c-10.313 5.9375 -25.781 3.8477 -22.09 -12.188 z M289.072640625 10.918 l-6.6992 29.082 l-9.7656 0 l2.7344 -11.914 l-5.625 0 l-2.7539 11.914 l-9.8047 0 l6.6992 -29.082 l9.8047 0 l-2.2656 9.8242 l5.6445 0 l2.2656 -9.8242 l9.7656 0 z M304.3507421875 10.918 l-6.6992 29.082 l-9.8242 0 l6.6992 -29.082 l9.8242 0 z M303.4961375 40.078125 l6.6992 -29.082 l10.391 0 l2.1094 10.43 c2.3242 -3.457 4.5898 -6.9727 6.9336 -10.43 l10.371 0 l-6.6992 29.082 l-9.7656 0 l2.5 -10.84 c-0.97656 1.4844 -1.9336 2.9883 -2.8711 4.5117 l-6.9141 0 l-0.83984 -4.5508 l-2.5195 10.879 l-9.3945 0 z M365.1025078125 30.6836 c-1.0156 4.4531 -4.7656 7.5977 -9.043 8.8086 c-1.3867 0.37109 -3.1055 0.54688 -5.1367 0.54688 l-12.07 0 l6.7188 -29.141 c3.3594 0 13.633 -0.64453 17.09 0.625 c2.9492 1.1523 4.3164 3.5547 3.5742 6.7383 c-0.52734 2.3242 -1.9336 4.2188 -3.8672 5.5859 c2.7539 1.4453 3.3984 3.9453 2.7344 6.8359 z M356.1765078125 20.059 c0.41016 -1.8555 -1.0547 -2.0313 -2.4805 -2.0313 l-0.80078 3.5156 c1.1523 0.097656 2.9492 -0.039063 3.2813 -1.4844 z M355.1615078125 30.5664 c0.625 -2.7148 -2.1094 -2.207 -3.8281 -2.207 l-1.0547 4.5508 c2.1875 0 4.2969 0.23438 4.8828 -2.3438 z M409.3505234375 10.918 l9.8828 0 l-16.289 29.043 l-9.3555 0 l-3.0859 -29.043 l10.098 0 l1.2109 13.984 c2.5977 -4.5898 4.9414 -9.375 7.5391 -13.984 z M420.781225 40.039063 l-9.8633 0 l16.25 -29.141 l9.7461 0 l2.7734 29.141 l-10.02 0 l-0.39063 -5.5078 l-5.5469 0 c-1.0352 1.8164 -1.9336 3.6914 -2.9492 5.5078 z M426.308125 27.715 l2.7148 0 l0.078125 -6.9336 z M441.4892890625 40.078125 l6.6992 -29.082 l9.8047 0 l-5 21.719 l10.82 0 l-1.6992 7.3633 l-20.625 0 z M476.708515625 40.52734 c-7.793 0 -11.66 -3.7305 -9.9414 -11.348 l4.1602 -18.262 l9.7852 0 l-4.043 17.852 c-0.41016 1.7383 -0.87891 4.4531 1.6992 4.4531 c2.4414 0 3.2617 -2.4805 3.7305 -4.4531 l4.043 -17.852 l9.8047 0 l-4.1602 18.242 c-1.7578 7.7734 -7.3242 11.367 -15.078 11.367 z M508.8625234375 39.960937 l-9.7852 0 l4.9414 -21.68 l-7.6953 0 l1.6797 -7.3633 l25.137 0 l-1.6797 7.3633 l-7.6563 0 z M525.1952875 40.039063 l-9.8633 0 l16.25 -29.141 l9.7461 0 l2.7734 29.141 l-10.02 0 l-0.39063 -5.5078 l-5.5469 0 c-1.0352 1.8164 -1.9336 3.6914 -2.9492 5.5078 z M530.7221875 27.715 l2.7148 0 l0.078125 -6.9336 z M567.8173515625 27.715 l6.582 12.246 l-11.602 0 l-4.8242 -9.4336 l-2.1484 9.4336 l-9.7461 0 l6.6211 -29.043 c3.3594 0 9.4531 -0.35156 14.258 0.35156 c4.2188 0.58594 8.3008 2.1875 7.5977 7.2656 c-0.48828 3.6328 -3.6914 7.3633 -6.7383 9.1797 z M560.8053515625 18.066 l-1.1328 5.0391 c4.6289 0 7.2852 -5.0391 1.1328 -5.0391 z"></path></g><g id="SvgjsG3677" featurekey="sloganFeature-0" transform="matrix(0.5814764299862244,0,0,0.5814764299862244,130.33711722472074,134.4877427702175)" fill="#ffffff"><path d="M10.16 13.719999999999999 c0.88 0.62 1.4 1.54 1.4 2.62 c0 2.08 -1.92 3.66 -3.92 3.66 l-6.5 0 l0 -12.24 l6.1 0 c1.6 0 2.92 0.86 3.62 2.28 c0.2 0.46 0.3 0.92 0.3 1.4 c0 0.9 -0.36 1.64 -1 2.28 z M4.14 10.54 l0 1.96 l3.1 0 c0.52 0 0.92 -0.5 0.92 -1 c0 -0.52 -0.38 -0.96 -0.92 -0.96 l-3.1 0 z M4.14 15.280000000000001 l0 1.94 l3.5 0 c0.54 0 0.92 -0.44 0.92 -0.96 c0 -0.26 -0.1 -0.5 -0.28 -0.7 c-0.18 -0.18 -0.4 -0.28 -0.64 -0.28 l-3.5 0 z M19.2495 20 l0 -4.54 c-2.42 -0.54 -3.82 -2.54 -3.82 -4.94 l0 -2.76 l3 0 l0 2.76 c0 1.44 0.86 2.32 2.3 2.32 c1.48 0 2.3 -0.86 2.3 -2.32 l0 -2.76 l3 0 l0 2.76 c0 2.44 -1.42 4.38 -3.78 4.94 l0 4.54 l-3 0 z M37.7085 20 l0 -12.24 l5.8 0 c2.28 0 4.22 1.72 4.22 4.02 c0 2.32 -2 4.02 -4.22 4.02 l-2.8 0 l0 4.2 l-3 0 z M43.5085 10.54 l-2.8 0 l0 2.48 l2.8 0 c0.7 0 1.22 -0.54 1.22 -1.24 s-0.52 -1.24 -1.22 -1.24 z M58.717999999999996 17.52 l-4.5 0 l-0.88 2.48 l-3.26 0 l4.9 -12.24 l3 0 l4.9 12.24 l-3.28 0 z M55.198 14.74 l2.54 0 l-1.26 -3.56 z M74.6875 7.76 l3 0 l0 12.24 l-3 0 l-4.8 -7.16 l0 7.16 l-3 0 l0 -12.24 l3 0 l4.8 7.16 l0 -7.16 z M87.077 20 l-4.3 0 l0 -12.24 l4.3 0 c3.74 0 6.3 2.44 6.3 6.12 c0 3.78 -2.7 6.12 -6.3 6.12 z M85.777 10.54 l0 6.68 l1.3 0 c2.12 0 3.3 -1.34 3.3 -3.34 c0 -0.46 -0.06 -0.88 -0.18 -1.3 c-0.52 -1.46 -1.66 -2.04 -3.12 -2.04 l-1.3 0 z M105.6065 17.52 l-4.5 0 l-0.88 2.48 l-3.26 0 l4.9 -12.24 l3 0 l4.9 12.24 l-3.28 0 z M102.0865 14.74 l2.54 0 l-1.26 -3.56 z M118.076 20 l-4.3 0 l0 -12.24 l4.3 0 c3.74 0 6.3 2.44 6.3 6.12 c0 3.78 -2.7 6.12 -6.3 6.12 z M116.776 10.54 l0 6.68 l1.3 0 c2.12 0 3.3 -1.34 3.3 -3.34 c0 -0.46 -0.06 -0.88 -0.18 -1.3 c-0.52 -1.46 -1.66 -2.04 -3.12 -2.04 l-1.3 0 z M129.0255 7.76 l9.1 0 l0 2.78 l-6.1 0 l0 1.96 l4.9 0 l0 2.78 l-4.9 0 l0 1.94 l6.1 0 l0 2.78 l-9.1 0 l0 -12.24 z M151.075 7.76 l3.28 0 l-4.9 12.24 l-3 0 l-4.9 -12.24 l3.26 0 l3.14 8.82 z"></path></g></svg>