<?xml version="1.0" encoding="utf-8"?>
<svg width="50px" height="50px" viewBox="0 -11 85 84" class="css-1j8o68f" xmlns="http://www.w3.org/2000/svg">
  <g id="SvgjsG3675" featurekey="symbolFeature-0" transform="matrix(0.262466, 0, 0, 0.262466, -1.24695, -12.086267)" fill="#daeaf8">
    <g xmlns="http://www.w3.org/2000/svg">
      <path class="fil0" d="M243.61 297.14c-22.56,13.31 -48.85,20.97 -76.94,20.97 -83.7,0 -151.56,-67.86 -151.56,-151.56 0,-80.88 63.35,-146.95 143.14,-151.32l0 67.54c-42.55,4.22 -75.78,40.12 -75.78,83.78 0,46.5 37.7,84.2 84.2,84.2 14.26,0 27.7,-3.55 39.47,-9.81l37.47 56.21zm53.01 -168.3l8.47 0 0.51 1.93 -13.48 0 4.5 -1.93zm8.33 -0.5l-7.16 0 4.5 -1.93 2.11 0 0.55 1.93zm-0.69 -2.43l-0.79 0 0.7 -0.3 0.09 0.3zm-13.32 5.37l14.79 0 0.47 1.93 -19.76 0 4.5 -1.93zm-5.68 2.43l21.06 0 0.44 1.93 -25.99 0 4.5 -1.93zm-5.68 2.43l27.28 0 0.4 1.93 -32.18 0 4.5 -1.93zm-5.68 2.43l33.46 0 0.37 1.93 -38.33 0 4.5 -1.93zm-5.67 2.43l39.59 0 0.33 1.93 -44.43 0 4.5 -1.93zm-5.68 2.43l45.69 0 0.3 1.93 -50.49 0 4.5 -1.93zm-5.68 2.43l51.74 0 0.26 1.93 -51.78 0 -0.4 -1.85 0.19 -0.08zm0.32 2.43l51.75 0 0.23 1.93 -51.61 0 -0.37 -1.93zm0.45 2.43l51.58 0 0.2 1.93 -51.47 0 -0.31 -1.93zm0.39 2.44l51.44 0 0.17 1.93 -51.35 0 -0.26 -1.93zm0.32 2.43l51.33 0 0.13 1.93 -51.25 0 -0.21 -1.93zm0.26 2.43l51.24 0 0.1 1.93 -51.18 0 -0.16 -1.93zm0.19 2.43l51.17 0 0.07 1.93 -51.13 0 -0.11 -1.93zm0.13 2.43l51.12 0 0.04 1.93 -51.1 0 -0.06 -1.93zm0.06 2.43l51.1 0 0 1.2 -0 0.72 -51.09 0 0 -0.72 -0.01 -1.2zm0 2.43l51.09 0 -0.03 1.93 -51.11 0 0.05 -1.93zm-0.06 2.43l51.12 0 -0.06 1.93 -51.15 0 0.1 -1.93zm-0.13 2.43l51.17 0 -0.09 1.93 -51.22 0 0.15 -1.93zm-0.19 2.43l51.23 0 -0.13 1.93 -51.3 0 0.2 -1.93zm-0.26 2.43l51.33 0 -0.16 1.93 -51.41 0 0.25 -1.93zm-0.32 2.43l51.44 0 -0.2 1.93 -51.55 0 0.3 -1.93zm-0.39 2.43l51.58 0 -0.23 1.93 -51.71 0 0.36 -1.93zm-0.46 2.43l51.75 0 -0.26 1.93 -51.89 0 0.41 -1.93zm-0.52 2.43l51.94 0 -0.29 1.93 -52.11 0 0.47 -1.93zm-0.59 2.43l52.16 0 -0.33 1.93 -52.35 0 0.52 -1.93zm-0.66 2.43l52.4 0 -0.36 1.93 -52.62 0 0.58 -1.93zm-0.74 2.43l52.68 0 -0.39 1.93 -52.92 0 0.63 -1.93zm-0.81 2.43l52.98 0 -0.43 1.93 -53.25 0 0.7 -1.93zm-0.89 2.43l53.32 0 -0.46 1.93 -53.62 0 0.76 -1.93zm-0.97 2.44l53.7 0 -0.5 1.93 -54.02 0 0.82 -1.93zm-1.05 2.43l54.11 0 -0.54 1.93 -54.45 0 0.89 -1.93zm-1.13 2.43l54.55 0 -0.57 1.93 -54.94 0 0.96 -1.93zm-1.22 2.43l55.04 0 -0.61 1.93 -55.46 0 1.03 -1.93zm-1.31 2.43l55.57 0 -0.65 1.93 -56.03 0 1.11 -1.93zm-1.41 2.43l56.16 0 -0.69 1.93 -56.65 0 1.19 -1.93zm-1.51 2.43l56.79 0 -0.73 1.93 -57.33 0 1.28 -1.93zm-1.62 2.43l57.48 0 -0.78 1.93 -58.07 0c0.46,-0.64 0.92,-1.28 1.37,-1.93zm-1.73 2.43l58.24 0 -0.81 1.93 -58.89 0c0.5,-0.63 0.98,-1.28 1.46,-1.93zm-1.86 2.43l59.06 0 -0.85 1.93 -59.78 0 1.57 -1.93zm-1.99 2.43l59.96 0 -0.89 1.93 -0 0 -60.75 0c0.57,-0.64 1.13,-1.28 1.69,-1.93zm-2.14 2.43l60.97 0 -0.94 1.93 -61.83 0c0.61,-0.63 1.22,-1.28 1.81,-1.93zm-2.3 2.43l62.06 0 -0.99 1.93 -62.98 0 -0.01 -0.02c0.65,-0.63 1.29,-1.26 1.92,-1.91zm-1.57 2.43l62.38 0 -1.04 1.93 -60.06 0 -1.28 -1.93zm1.62 2.43l59.44 0 -1.09 1.93 -57.07 0 -1.28 -1.93zm1.62 2.43l56.44 0 -1.13 1.93 -54.02 0 -1.28 -1.93zm1.62 2.43l53.38 0 -1.19 1.93 -50.91 0 -1.28 -1.93zm1.62 2.43l50.25 0 -1.24 1.93 -47.73 0 -1.28 -1.93zm1.62 2.43l47.06 0 -1.3 1.93 -44.47 0 -1.28 -1.93zm1.62 2.43l43.79 0 -1.36 1.93 -41.14 0 -1.29 -1.93zm1.62 2.44l40.44 0 -1.42 1.93 -37.74 0 -1.29 -1.93zm1.62 2.43l37.02 0 -1.48 1.93 -34.26 0 -1.29 -1.93zm1.63 2.43l33.52 0 -1.55 1.93 -30.68 0 -1.28 -1.93zm1.62 2.43l29.93 0 -1.63 1.93 -27.02 0 -1.28 -1.93zm1.62 2.43l26.25 0 -1.69 1.93 -23.28 0 -1.28 -1.93zm1.62 2.43l22.48 0 -1.78 1.93 -19.42 0 -1.28 -1.93zm1.62 2.43l18.61 0 -1.87 1.93 -15.46 0 -1.28 -1.93zm1.62 2.43l14.63 0 -1.95 1.93 -11.39 0 -1.28 -1.93zm1.62 2.43l10.53 0c-0.68,0.65 -1.35,1.3 -2.04,1.93l-7.2 0 -1.28 -1.93zm1.62 2.43l6.31 0 -2.15 1.93 -2.87 0 -1.28 -1.93zm1.62 2.43l1.96 0 -1.24 1.07 -0.71 -1.07zm-94.05 -101.52l0 39.65c1.31,0.1 2.6,0.09 3.91,0.01l0 -39.56c-1.31,-0.08 -2.61,-0.06 -3.91,-0.11zm-9.63 -1.43c-32.58,-8.81 -32.58,-54.74 0,-63.55l0 -6.34c0,-6.37 9.63,-6.37 9.63,0l0 4.92c1.31,-0.06 2.6,-0.06 3.91,0.01l0 -4.93c0,-6.37 9.63,-6.37 9.63,0l0 6.63c13.85,4.26 24.92,16 24.92,31.49 0,8.81 -13.4,8.81 -13.4,0 0,-7.88 -4.97,-13.86 -11.52,-17.11l0 38.42c32.58,8.81 32.57,54.74 0,63.55l0 6.34c0,6.37 -9.63,6.37 -9.63,0l0 -4.92c-1.31,0.06 -2.6,0.06 -3.91,-0.01l0 4.93c0,6.37 -9.63,6.37 -9.63,0l0 -6.63c-13.85,-4.26 -24.92,-16 -24.92,-31.49 0,-8.81 13.4,-8.81 13.4,0 0,7.88 4.97,13.86 11.52,17.11l0 -38.42zm13.54 -51.54c-1.31,-0.1 -2.6,-0.09 -3.91,-0.01l0 39.56c1.31,0.08 2.61,0.06 3.91,0.11l0 -39.65zm-13.54 2.31c-15,7.06 -15,27.84 0,34.91l0 -34.91zm23.17 87.99c15,-7.07 15,-27.85 0,-34.91l0 34.91zm130.85 -96.02c5.91,16.19 9.13,33.67 9.13,51.91 0,49.58 -23.81,93.6 -60.61,121.25l-37.48 -56.21c18.76,-15.44 30.72,-38.84 30.72,-65.04 0,-8.81 -1.35,-17.31 -3.87,-25.29l62.1 -26.61zm-134.02 -99.42c55.92,3.06 103.76,36.44 127.38,83.98l-62.1 26.62c-13.07,-23.6 -37.13,-40.26 -65.28,-43.06l0 -67.54zm8.13 8.85l0 51.62c24.74,4.49 46.56,18.95 60.43,39.87l47.46 -20.35c-22.61,-39.41 -62.65,-65.93 -107.9,-71.15z" style="fill: #daeaf8;"/>
    </g>
  </g>
</svg>