<?xml version="1.0" encoding="utf-8"?>
<svg width="200px" height="40px" viewBox="0 0 200px 17px" preserveAspectRatio="xMinYMin slice" xmlns="http://www.w3.org/2000/svg">
  <g id="SvgjsG3676" featurekey="nameFeature-0" transform="matrix(0.345703, 0, 0, 0.402546, 2.053685, -2.325263)" fill="#ffffff" style="">
    <path d="M -5.117 20.85 C -3.105 12.1 3.594 5.713 12.793 5.713 C 17.969 5.713 20.899 7.177 22.637 8.447 L 20.762 16.592 L 17.637 16.592 C 5 2.979 -4.648 38.311 15.86 25.049 L 18.809 25.049 L 16.973 33.037 C 6.66 38.974 -8.808 36.885 -5.117 20.849 L -5.117 20.85 Z M 26.451 35.381 L 16.587 35.381 L 32.837 6.24 L 42.583 6.24 L 45.357 35.381 L 35.337 35.381 L 34.946 29.873 L 29.399 29.873 C 28.364 31.689 27.466 33.564 26.45 35.381 L 26.451 35.381 Z M 31.977 23.057 L 34.692 23.057 L 34.77 16.123 L 31.977 23.057 Z M 46.143 33.213 L 47.979 25.146 L 50.967 25.146 C 51.358 29.326 60.674 31.064 61.592 26.982 C 62.08 24.912 54.776 24.346 52.373 22.471 C 49.991 20.615 49.737 18.056 50.362 15.322 C 52.705 5.009 66.729 4.013 74.815 8.076 L 73.018 15.908 L 70.01 15.908 C 70.186 12.959 61.279 10.967 60.479 14.502 C 59.854 17.236 68.916 16.435 71.397 20.771 C 73.799 25.068 70.029 30.713 66.572 33.076 C 60.498 37.08 52.412 36.397 46.142 33.213 L 46.143 33.213 Z M 79.214 35.381 L 69.351 35.381 L 85.601 6.24 L 95.347 6.24 L 98.12 35.381 L 88.1 35.381 L 87.71 29.873 L 82.163 29.873 C 81.128 31.689 80.229 33.564 79.214 35.381 Z M 84.741 23.057 L 87.456 23.057 L 87.534 16.123 L 84.741 23.057 Z M 150.807 20.85 C 149.146 27.939 143.404 33.702 136.139 35.01 C 131.256 35.693 125.768 35.381 120.866 35.381 L 127.565 6.24 C 131.432 6.24 141.354 5.654 145.221 7.314 C 150.67 9.619 152.018 15.498 150.807 20.849 L 150.807 20.85 Z M 140.826 20.772 C 141.997 15.694 140.552 13.467 135.728 13.467 L 132.349 28.115 C 137.251 28.115 139.615 26.025 140.826 20.771 L 140.826 20.772 Z M 171.846 35.342 L 150.987 35.342 L 157.686 6.26 L 178.545 6.26 L 176.846 13.603 L 165.752 13.603 L 165.185 16.084 L 175.4 16.084 L 173.721 23.428 L 163.506 23.428 L 162.451 27.979 L 173.545 27.979 L 171.846 35.342 Z M 195.528 33.213 L 197.364 25.146 L 200.352 25.146 C 200.743 29.326 210.059 31.064 210.977 26.982 C 211.465 24.912 204.161 24.346 201.758 22.471 C 199.375 20.615 199.121 18.056 199.746 15.322 C 202.09 5.009 216.113 4.013 224.199 8.076 L 222.403 15.908 L 219.395 15.908 C 219.57 12.959 210.664 10.967 209.863 14.502 C 209.238 17.236 218.301 16.435 220.781 20.771 C 223.184 25.068 219.414 30.713 215.957 33.076 C 209.883 37.08 201.797 36.397 195.527 33.213 L 195.528 33.213 Z M 223.736 20.85 C 225.747 12.1 232.447 5.713 241.646 5.713 C 246.821 5.713 249.751 7.177 251.489 8.447 L 249.614 16.592 L 246.489 16.592 C 233.852 2.979 224.204 38.311 244.712 25.049 L 247.661 25.049 L 245.825 33.037 C 235.512 38.974 220.044 36.885 223.735 20.849 L 223.736 20.85 Z M 280.616 6.26 L 273.917 35.342 L 264.151 35.342 L 266.886 23.428 L 261.261 23.428 L 258.507 35.342 L 248.702 35.342 L 255.401 6.26 L 265.206 6.26 L 262.94 16.084 L 268.585 16.084 L 270.85 6.26 L 280.616 6.26 Z M 295.894 6.26 L 289.195 35.342 L 279.371 35.342 L 286.07 6.26 L 295.894 6.26 Z M 295.039 35.42 L 301.739 6.338 L 312.13 6.338 L 314.239 16.768 C 316.563 13.311 318.829 9.795 321.173 6.338 L 331.544 6.338 L 324.844 35.42 L 315.079 35.42 L 317.579 24.58 C 316.602 26.064 315.645 27.568 314.708 29.091 L 307.794 29.091 L 306.954 24.541 L 304.434 35.42 L 295.04 35.42 L 295.039 35.42 Z M 356.646 26.025 C 355.63 30.478 351.88 33.623 347.603 34.834 C 346.216 35.205 344.497 35.381 342.466 35.381 L 330.396 35.381 L 337.115 6.24 C 340.474 6.24 350.748 5.595 354.205 6.865 C 357.154 8.017 358.521 10.419 357.779 13.603 C 357.252 15.927 355.846 17.822 353.912 19.189 C 356.666 20.634 357.31 23.134 356.646 26.025 Z M 347.72 15.401 C 348.13 13.545 346.665 13.369 345.239 13.369 L 344.439 16.885 C 345.591 16.983 347.388 16.846 347.72 15.401 Z M 346.705 25.908 C 347.33 23.193 344.595 23.701 342.877 23.701 L 341.822 28.252 C 344.01 28.252 346.119 28.486 346.705 25.908 Z M 400.894 6.26 L 410.777 6.26 L 394.488 35.303 L 385.132 35.303 L 382.046 6.26 L 392.144 6.26 L 393.355 20.244 C 395.953 15.654 398.297 10.869 400.894 6.26 Z M 412.325 35.381 L 402.461 35.381 L 418.711 6.24 L 428.457 6.24 L 431.231 35.381 L 421.211 35.381 L 420.82 29.873 L 415.273 29.873 C 414.238 31.689 413.34 33.564 412.324 35.381 L 412.325 35.381 Z M 417.851 23.057 L 420.566 23.057 L 420.644 16.123 L 417.851 23.057 Z M 433.033 35.42 L 439.732 6.338 L 449.537 6.338 L 444.537 28.057 L 455.357 28.057 L 453.657 35.42 L 433.032 35.42 L 433.033 35.42 Z M 468.252 35.869 C 460.459 35.869 456.592 32.139 458.31 24.521 L 462.471 6.259 L 472.256 6.259 L 468.213 24.111 C 467.803 25.849 467.334 28.564 469.912 28.564 C 472.353 28.564 473.174 26.084 473.643 24.111 L 477.686 6.259 L 487.49 6.259 L 483.33 24.501 C 481.572 32.274 476.006 35.868 468.252 35.868 L 468.252 35.869 Z M 500.406 35.303 L 490.621 35.303 L 495.562 13.623 L 487.867 13.623 L 489.546 6.259 L 514.683 6.259 L 513.004 13.623 L 505.347 13.623 L 500.406 35.303 Z M 516.739 35.381 L 506.875 35.381 L 523.125 6.24 L 532.871 6.24 L 535.645 35.381 L 525.625 35.381 L 525.234 29.873 L 519.687 29.873 C 518.652 31.689 517.754 33.564 516.738 35.381 L 516.739 35.381 Z M 522.266 23.057 L 524.98 23.057 L 525.058 16.123 L 522.266 23.057 Z M 559.361 23.057 L 565.943 35.303 L 554.341 35.303 L 549.516 25.869 L 547.368 35.303 L 537.622 35.303 L 544.243 6.26 C 547.602 6.26 553.696 5.908 558.501 6.611 C 562.72 7.197 566.802 8.799 566.099 13.877 C 565.611 17.51 562.407 21.24 559.36 23.057 L 559.361 23.057 Z M 552.349 13.408 L 551.216 18.447 C 555.845 18.447 558.501 13.408 552.349 13.408 Z"/>
  </g>
  <g id="SvgjsG3677" featurekey="sloganFeature-0" transform="matrix(0.513436, 0, 0, 0.604757, 118.185705, 11.09396)" fill="#ffffff" style="">
    <path d="M10.16 13.719999999999999 c0.88 0.62 1.4 1.54 1.4 2.62 c0 2.08 -1.92 3.66 -3.92 3.66 l-6.5 0 l0 -12.24 l6.1 0 c1.6 0 2.92 0.86 3.62 2.28 c0.2 0.46 0.3 0.92 0.3 1.4 c0 0.9 -0.36 1.64 -1 2.28 z M4.14 10.54 l0 1.96 l3.1 0 c0.52 0 0.92 -0.5 0.92 -1 c0 -0.52 -0.38 -0.96 -0.92 -0.96 l-3.1 0 z M4.14 15.280000000000001 l0 1.94 l3.5 0 c0.54 0 0.92 -0.44 0.92 -0.96 c0 -0.26 -0.1 -0.5 -0.28 -0.7 c-0.18 -0.18 -0.4 -0.28 -0.64 -0.28 l-3.5 0 z M19.2495 20 l0 -4.54 c-2.42 -0.54 -3.82 -2.54 -3.82 -4.94 l0 -2.76 l3 0 l0 2.76 c0 1.44 0.86 2.32 2.3 2.32 c1.48 0 2.3 -0.86 2.3 -2.32 l0 -2.76 l3 0 l0 2.76 c0 2.44 -1.42 4.38 -3.78 4.94 l0 4.54 l-3 0 z M37.7085 20 l0 -12.24 l5.8 0 c2.28 0 4.22 1.72 4.22 4.02 c0 2.32 -2 4.02 -4.22 4.02 l-2.8 0 l0 4.2 l-3 0 z M43.5085 10.54 l-2.8 0 l0 2.48 l2.8 0 c0.7 0 1.22 -0.54 1.22 -1.24 s-0.52 -1.24 -1.22 -1.24 z M58.717999999999996 17.52 l-4.5 0 l-0.88 2.48 l-3.26 0 l4.9 -12.24 l3 0 l4.9 12.24 l-3.28 0 z M55.198 14.74 l2.54 0 l-1.26 -3.56 z M74.6875 7.76 l3 0 l0 12.24 l-3 0 l-4.8 -7.16 l0 7.16 l-3 0 l0 -12.24 l3 0 l4.8 7.16 l0 -7.16 z M87.077 20 l-4.3 0 l0 -12.24 l4.3 0 c3.74 0 6.3 2.44 6.3 6.12 c0 3.78 -2.7 6.12 -6.3 6.12 z M85.777 10.54 l0 6.68 l1.3 0 c2.12 0 3.3 -1.34 3.3 -3.34 c0 -0.46 -0.06 -0.88 -0.18 -1.3 c-0.52 -1.46 -1.66 -2.04 -3.12 -2.04 l-1.3 0 z M105.6065 17.52 l-4.5 0 l-0.88 2.48 l-3.26 0 l4.9 -12.24 l3 0 l4.9 12.24 l-3.28 0 z M102.0865 14.74 l2.54 0 l-1.26 -3.56 z M118.076 20 l-4.3 0 l0 -12.24 l4.3 0 c3.74 0 6.3 2.44 6.3 6.12 c0 3.78 -2.7 6.12 -6.3 6.12 z M116.776 10.54 l0 6.68 l1.3 0 c2.12 0 3.3 -1.34 3.3 -3.34 c0 -0.46 -0.06 -0.88 -0.18 -1.3 c-0.52 -1.46 -1.66 -2.04 -3.12 -2.04 l-1.3 0 z M129.0255 7.76 l9.1 0 l0 2.78 l-6.1 0 l0 1.96 l4.9 0 l0 2.78 l-4.9 0 l0 1.94 l6.1 0 l0 2.78 l-9.1 0 l0 -12.24 z M151.075 7.76 l3.28 0 l-4.9 12.24 l-3 0 l-4.9 -12.24 l3.26 0 l3.14 8.82 z"/>
  </g>
</svg>